<svg xmlns="http://www.w3.org/2000/svg" version="1.1" xmlns:xlink="http://www.w3.org/1999/xlink"
     xmlns:svgjs="http://svgjs.dev/svgjs" width="1000" height="1000" viewBox="0 0 1000 1000">
    <rect width="1000" height="1000" fill="#ffffff"></rect>
    <g transform="matrix(0.7,0,0,0.7,149.57575757575756,282.1265587044535)">
        <svg viewBox="0 0 396 247" data-background-color="#444444" preserveAspectRatio="xMidYMid meet" height="623"
             width="1000" xmlns="http://www.w3.org/2000/svg" xmlns:xlink="http://www.w3.org/1999/xlink">
            <g id="tight-bounds" transform="matrix(1,0,0,1,0.2400000000000091,-0.09999999999999432)">
                <svg viewBox="0 0 395.52 247.2" height="247.2" width="395.52">
                    <g>
                        <svg></svg>
                    </g>
                    <g>
                        <svg viewBox="0 0 395.52 247.2" height="247.2" width="395.52">
                            <g transform="matrix(1,0,0,1,75.54432,93.47641690140846)">
                                <svg viewBox="0 0 244.43135999999998 60.247166197183084" height="60.247166197183084"
                                     width="244.43135999999998">
                                    <g>
                                        <svg viewBox="0 0 244.43135999999998 60.247166197183084"
                                             height="60.247166197183084" width="244.43135999999998">
                                            <g>
                                                <svg viewBox="0 0 244.43135999999998 60.247166197183084"
                                                     height="60.247166197183084" width="244.43135999999998">
                                                    <g>
                                                        <svg viewBox="0 0 244.43135999999998 60.247166197183084"
                                                             height="60.247166197183084" width="244.43135999999998">
                                                            <g id="textblocktransform">
                                                                <svg viewBox="0 0 244.43135999999998 60.247166197183084"
                                                                     height="60.247166197183084"
                                                                     width="244.43135999999998" id="textblock">
                                                                    <g>
                                                                        <svg viewBox="0 0 244.43135999999998 60.247166197183084"
                                                                             height="60.247166197183084"
                                                                             width="244.43135999999998">
                                                                            <g transform="matrix(1,0,0,1,0,0)">
                                                                                <svg width="244.43135999999998"
                                                                                     viewBox="1.5 -36.25 149.08999633789062 36.75"
                                                                                     height="60.247166197183084"
                                                                                     data-palette-color="#ffffff">
                                                                                    <path d="M1.5-33L29.45-33 29.45-28.4 18.15-28.4 18.15 0 12.8 0 12.8-28.4 1.5-28.4 1.5-33ZM37.8-29.2L37.8-29.2Q36.05-29.2 35.12-30.08 34.2-30.95 34.2-32.55L34.2-32.55Q34.2-34.15 35.12-35 36.05-35.85 37.8-35.85L37.8-35.85Q39.5-35.85 40.42-35 41.35-34.15 41.35-32.55L41.35-32.55Q41.35-30.95 40.42-30.08 39.5-29.2 37.8-29.2ZM35.1-25L40.45-25 40.45 0 35.1 0 35.1-25ZM59.6-25.5L59.6-25.5Q62.59-25.5 64.72-24.63 66.84-23.75 68.3-22.15 69.75-20.55 70.5-18.5L70.5-18.5 65.45-16.5Q64.8-18.8 63.37-20.03 61.95-21.25 59.65-21.25L59.65-21.25Q57.4-21.25 55.8-20.23 54.2-19.2 53.37-17.25 52.55-15.3 52.55-12.45L52.55-12.45Q52.55-9.65 53.4-7.7 54.25-5.75 55.85-4.75 57.45-3.75 59.65-3.75L59.65-3.75Q61.34-3.75 62.59-4.33 63.85-4.9 64.67-5.98 65.5-7.05 65.8-8.6L65.8-8.6 70.65-6.95Q69.95-4.7 68.47-3.03 67-1.35 64.8-0.43 62.59 0.5 59.75 0.5L59.75 0.5Q56.05 0.5 53.2-1.05 50.35-2.6 48.77-5.53 47.2-8.45 47.2-12.5L47.2-12.5Q47.2-16.55 48.77-19.48 50.35-22.4 53.17-23.95 56-25.5 59.6-25.5ZM94.14-25L100.49-25 89.34-13.6 88.19-12.8 80.34-4.65 80.29-10.75 94.14-25ZM76.89-36.25L82.24-36.25 82.24 0 76.89 0 76.89-36.25ZM85.99-13.55L89.99-16.6 101.09 0 94.89 0 85.99-13.55ZM117.04 0.5L117.04 0.5Q113.29 0.5 110.44-1.05 107.59-2.6 106.02-5.53 104.44-8.45 104.44-12.5L104.44-12.5Q104.44-16.55 106.02-19.48 107.59-22.4 110.39-23.95 113.19-25.5 116.74-25.5L116.74-25.5Q120.39-25.5 122.94-24 125.49-22.5 126.84-19.9 128.19-17.3 128.19-14L128.19-14Q128.19-13.1 128.14-12.3 128.09-11.5 127.99-10.9L127.99-10.9 107.89-10.9 107.89-15 125.64-15 122.99-14.2Q122.99-17.6 121.29-19.43 119.59-21.25 116.64-21.25L116.64-21.25Q114.49-21.25 112.89-20.25 111.29-19.25 110.44-17.28 109.59-15.3 109.59-12.45L109.59-12.45Q109.59-9.65 110.49-7.7 111.39-5.75 113.04-4.75 114.69-3.75 116.94-3.75L116.94-3.75Q119.44-3.75 120.99-4.7 122.54-5.65 123.44-7.35L123.44-7.35 127.69-5.35Q126.79-3.55 125.27-2.23 123.74-0.9 121.64-0.2 119.54 0.5 117.04 0.5ZM140.29 0L134.94 0 134.94-25 139.49-25 139.99-20.5Q140.99-22.95 142.96-24.23 144.94-25.5 147.84-25.5L147.84-25.5Q148.59-25.5 149.34-25.38 150.09-25.25 150.59-25L150.59-25 149.84-20.3Q149.29-20.5 148.61-20.63 147.94-20.75 146.79-20.75L146.79-20.75Q145.24-20.75 143.74-19.93 142.24-19.1 141.26-17.45 140.29-15.8 140.29-13.25L140.29-13.25 140.29 0Z"
                                                                                          opacity="1"
                                                                                          transform="matrix(1,0,0,1,0,0)"
                                                                                          fill="#000000"
                                                                                          class="wordmark-text-0"
                                                                                          data-fill-palette-color="primary"
                                                                                          id="text-0"></path>
                                                                                </svg>
                                                                            </g>
                                                                        </svg>
                                                                    </g>
                                                                </svg>
                                                            </g>
                                                        </svg>
                                                    </g>
                                                </svg>
                                            </g>
                                        </svg>
                                    </g>
                                </svg>
                            </g>
                            <path d="M196.769 87.476L196.769 28.798 386.373 28.798 386.373 218.402 196.769 218.402 196.769 159.724 202.203 159.724 202.203 212.968 380.94 212.968 380.94 34.232 202.203 34.232 202.203 87.476Z"
                                  fill="#000000" stroke="transparent" data-fill-palette-color="primary"></path>
                        </svg>
                    </g>
                    <defs></defs>
                </svg>
                <rect width="395.52" height="247.2" fill="none" stroke="none" visibility="hidden"></rect>
            </g>
        </svg>
    </g>
</svg>